<?xml version="1.0" standalone="no"?>
<!DOCTYPE svg PUBLIC "-//W3C//DTD SVG 20010904//EN"
 "http://www.w3.org/TR/2001/REC-SVG-20010904/DTD/svg10.dtd">
<svg version="1.0" xmlns="http://www.w3.org/2000/svg"
 width="920.000000pt" height="919.000000pt" viewBox="0 0 920.000000 919.000000"
 preserveAspectRatio="xMidYMid meet">

<g transform="translate(0.000000,919.000000) scale(0.100000,-0.100000)"
fill="#000000" stroke="none">
<path d="M3660 8579 l-145 -5 -235 -83 c-129 -46 -323 -114 -430 -151 -107
-38 -280 -99 -385 -135 -104 -37 -241 -84 -303 -106 -129 -45 -34 23 -1047
-744 -259 -196 -486 -369 -506 -383 -26 -20 -85 -107 -212 -315 l-175 -288 5
-216 6 -216 171 -227 c94 -125 187 -240 207 -256 20 -16 90 -74 155 -129 66
-54 160 -133 209 -173 50 -41 110 -92 135 -112 25 -21 225 -187 445 -369 220
-183 460 -382 534 -444 74 -62 245 -202 380 -312 135 -110 379 -313 541 -450
162 -138 328 -277 369 -310 186 -152 343 -282 517 -430 225 -190 514 -432 634
-531 l86 -72 50 47 c27 25 81 73 119 107 39 34 204 180 369 325 164 145 346
304 405 352 58 49 274 229 480 400 206 172 444 370 530 441 269 222 361 298
545 452 99 82 207 171 240 199 106 86 291 239 296 245 3 4 55 46 115 95 106
86 225 184 235 195 3 3 41 35 85 70 44 36 112 92 150 125 39 33 144 120 232
193 l162 133 170 227 170 228 5 214 c2 118 0 222 -5 231 -5 9 -41 41 -81 70
-40 30 -82 62 -93 71 -32 27 -184 147 -288 227 -53 40 -98 80 -101 88 -3 8
-10 12 -14 9 -5 -3 -18 3 -28 12 -10 10 -37 31 -59 47 -22 17 -45 35 -51 40
-7 6 -24 19 -40 30 -15 11 -32 25 -38 31 -25 23 -160 123 -164 120 -2 -2 4
-20 12 -40 8 -20 13 -36 10 -36 -11 0 -45 95 -35 98 6 2 8 9 4 15 -3 6 -29 81
-58 166 l-51 156 -369 278 c-204 153 -381 283 -395 288 -29 13 -756 263 -1025
354 -55 19 -185 63 -290 100 l-190 66 -910 -3 c-500 -2 -975 -6 -1055 -9z"/>
<path d="M8002 7407 c10 -8 14 -18 10 -22 -4 -5 -1 -5 6 -1 17 10 15 14 -10
26 -21 10 -21 10 -6 -3z"/>
<path d="M8073 7357 c0 -8 6 -14 14 -14 9 0 10 4 2 14 -6 7 -12 13 -14 13 -1
0 -2 -6 -2 -13z"/>
<path d="M8104 7329 c-4 -7 -3 -10 4 -5 6 3 18 -4 26 -16 9 -12 16 -18 16 -12
0 6 -9 19 -19 28 -14 13 -21 14 -27 5z"/>
<path d="M8160 7290 c0 -5 5 -10 11 -10 5 0 7 5 4 10 -3 6 -8 10 -11 10 -2 0
-4 -4 -4 -10z"/>
</g>
</svg>
